<mxfile host="Electron" agent="Mozilla/5.0 (Windows NT 10.0; Win64; x64) AppleWebKit/537.36 (KHTML, like Gecko) draw.io/24.7.17 Chrome/128.0.6613.36 Electron/32.0.1 Safari/537.36" version="24.7.17">
  <diagram name="Page-1" id="Urm-zIX8HCnzgYJCPoIx">
    <mxGraphModel dx="724" dy="434" grid="1" gridSize="10" guides="0" tooltips="1" connect="1" arrows="1" fold="1" page="1" pageScale="1" pageWidth="827" pageHeight="1169" math="1" shadow="0">
      <root>
        <mxCell id="0" />
        <mxCell id="1" parent="0" />
        <mxCell id="4dpfOXXUzg2HMI2NdFn6-2" value="" style="endArrow=none;html=1;rounded=0;" parent="1" edge="1">
          <mxGeometry width="50" height="50" relative="1" as="geometry">
            <mxPoint x="160" y="80" as="sourcePoint" />
            <mxPoint x="450" y="80" as="targetPoint" />
          </mxGeometry>
        </mxCell>
        <mxCell id="4dpfOXXUzg2HMI2NdFn6-3" value="" style="endArrow=none;html=1;rounded=0;" parent="1" edge="1">
          <mxGeometry width="50" height="50" relative="1" as="geometry">
            <mxPoint x="300" y="150" as="sourcePoint" />
            <mxPoint x="450" y="150" as="targetPoint" />
          </mxGeometry>
        </mxCell>
        <mxCell id="4dpfOXXUzg2HMI2NdFn6-6" value="" style="endArrow=none;html=1;rounded=0;" parent="1" edge="1">
          <mxGeometry width="50" height="50" relative="1" as="geometry">
            <mxPoint x="260" y="110" as="sourcePoint" />
            <mxPoint x="300" y="110" as="targetPoint" />
          </mxGeometry>
        </mxCell>
        <mxCell id="4dpfOXXUzg2HMI2NdFn6-7" value="$$E_{vac}$$" style="text;html=1;align=center;verticalAlign=middle;whiteSpace=wrap;rounded=0;" parent="1" vertex="1">
          <mxGeometry x="128" y="70" width="30" height="20" as="geometry" />
        </mxCell>
        <mxCell id="4dpfOXXUzg2HMI2NdFn6-9" value="" style="shape=curlyBracket;whiteSpace=wrap;html=1;rounded=1;flipH=1;labelPosition=right;verticalLabelPosition=middle;align=left;verticalAlign=middle;rotation=90;" parent="1" vertex="1">
          <mxGeometry x="200" y="185" width="20" height="100" as="geometry" />
        </mxCell>
        <mxCell id="4dpfOXXUzg2HMI2NdFn6-11" value="$$E_f$$" style="text;html=1;align=center;verticalAlign=middle;whiteSpace=wrap;rounded=0;" parent="1" vertex="1">
          <mxGeometry x="127" y="140" width="30" height="20" as="geometry" />
        </mxCell>
        <mxCell id="4dpfOXXUzg2HMI2NdFn6-12" value="" style="endArrow=none;html=1;rounded=0;" parent="1" edge="1">
          <mxGeometry width="50" height="50" relative="1" as="geometry">
            <mxPoint x="300" y="130" as="sourcePoint" />
            <mxPoint x="450" y="130" as="targetPoint" />
          </mxGeometry>
        </mxCell>
        <mxCell id="4dpfOXXUzg2HMI2NdFn6-4" value="" style="endArrow=none;html=1;rounded=0;" parent="1" edge="1">
          <mxGeometry width="50" height="50" relative="1" as="geometry">
            <mxPoint x="160" y="150" as="sourcePoint" />
            <mxPoint x="260" y="150" as="targetPoint" />
          </mxGeometry>
        </mxCell>
        <mxCell id="4dpfOXXUzg2HMI2NdFn6-18" value="$$E_c$$" style="text;html=1;align=center;verticalAlign=middle;whiteSpace=wrap;rounded=0;" parent="1" vertex="1">
          <mxGeometry x="450" y="120" width="30" height="20" as="geometry" />
        </mxCell>
        <mxCell id="4dpfOXXUzg2HMI2NdFn6-19" value="$$E_c$$" style="text;html=1;align=center;verticalAlign=middle;whiteSpace=wrap;rounded=0;" parent="1" vertex="1">
          <mxGeometry x="235" y="100" width="30" height="20" as="geometry" />
        </mxCell>
        <mxCell id="4dpfOXXUzg2HMI2NdFn6-20" value="" style="endArrow=none;dashed=1;html=1;rounded=0;exitX=0.25;exitY=1;exitDx=0;exitDy=0;" parent="1" source="4dpfOXXUzg2HMI2NdFn6-22" edge="1">
          <mxGeometry width="50" height="50" relative="1" as="geometry">
            <mxPoint x="260" y="220" as="sourcePoint" />
            <mxPoint x="260" y="80" as="targetPoint" />
          </mxGeometry>
        </mxCell>
        <mxCell id="4dpfOXXUzg2HMI2NdFn6-21" value="" style="endArrow=none;dashed=1;html=1;rounded=0;" parent="1" edge="1">
          <mxGeometry width="50" height="50" relative="1" as="geometry">
            <mxPoint x="300" y="220" as="sourcePoint" />
            <mxPoint x="300" y="80" as="targetPoint" />
          </mxGeometry>
        </mxCell>
        <mxCell id="4dpfOXXUzg2HMI2NdFn6-22" value="" style="shape=curlyBracket;whiteSpace=wrap;html=1;rounded=1;flipH=1;labelPosition=right;verticalLabelPosition=middle;align=left;verticalAlign=middle;rotation=90;" parent="1" vertex="1">
          <mxGeometry x="270" y="215" width="20" height="40" as="geometry" />
        </mxCell>
        <mxCell id="4dpfOXXUzg2HMI2NdFn6-23" value="" style="shape=curlyBracket;whiteSpace=wrap;html=1;rounded=1;flipH=1;labelPosition=right;verticalLabelPosition=middle;align=left;verticalAlign=middle;rotation=90;" parent="1" vertex="1">
          <mxGeometry x="365" y="160" width="20" height="150" as="geometry" />
        </mxCell>
        <mxCell id="4dpfOXXUzg2HMI2NdFn6-24" value="Oxide" style="text;html=1;align=center;verticalAlign=middle;whiteSpace=wrap;rounded=0;fontSize=10;" parent="1" vertex="1">
          <mxGeometry x="265" y="245" width="30" height="20" as="geometry" />
        </mxCell>
        <mxCell id="4dpfOXXUzg2HMI2NdFn6-25" value="Metal" style="text;html=1;align=center;verticalAlign=middle;whiteSpace=wrap;rounded=0;fontSize=10;" parent="1" vertex="1">
          <mxGeometry x="195" y="245" width="30" height="20" as="geometry" />
        </mxCell>
        <mxCell id="4dpfOXXUzg2HMI2NdFn6-26" value="Semiconductor" style="text;html=1;align=center;verticalAlign=middle;whiteSpace=wrap;rounded=0;fontSize=10;" parent="1" vertex="1">
          <mxGeometry x="360" y="245" width="30" height="20" as="geometry" />
        </mxCell>
        <mxCell id="4dpfOXXUzg2HMI2NdFn6-27" value="$$E_f$$" style="text;html=1;align=center;verticalAlign=middle;whiteSpace=wrap;rounded=0;" parent="1" vertex="1">
          <mxGeometry x="450" y="140" width="30" height="20" as="geometry" />
        </mxCell>
        <mxCell id="4dpfOXXUzg2HMI2NdFn6-28" value="" style="endArrow=none;html=1;rounded=0;" parent="1" edge="1">
          <mxGeometry width="50" height="50" relative="1" as="geometry">
            <mxPoint x="260" y="214.8" as="sourcePoint" />
            <mxPoint x="300" y="214.8" as="targetPoint" />
          </mxGeometry>
        </mxCell>
        <mxCell id="4dpfOXXUzg2HMI2NdFn6-29" value="$$E_v$$" style="text;html=1;align=center;verticalAlign=middle;whiteSpace=wrap;rounded=0;" parent="1" vertex="1">
          <mxGeometry x="234" y="204" width="30" height="20" as="geometry" />
        </mxCell>
        <mxCell id="4dpfOXXUzg2HMI2NdFn6-30" value="" style="endArrow=none;html=1;rounded=0;" parent="1" edge="1">
          <mxGeometry width="50" height="50" relative="1" as="geometry">
            <mxPoint x="300" y="189.82" as="sourcePoint" />
            <mxPoint x="450" y="189.82" as="targetPoint" />
          </mxGeometry>
        </mxCell>
        <mxCell id="4dpfOXXUzg2HMI2NdFn6-33" value="$$E_v$$" style="text;html=1;align=center;verticalAlign=middle;whiteSpace=wrap;rounded=0;" parent="1" vertex="1">
          <mxGeometry x="450" y="180" width="30" height="20" as="geometry" />
        </mxCell>
        <mxCell id="4dpfOXXUzg2HMI2NdFn6-34" value="" style="endArrow=none;html=1;rounded=0;dashed=1;dashPattern=8 8;" parent="1" edge="1">
          <mxGeometry width="50" height="50" relative="1" as="geometry">
            <mxPoint x="300" y="160" as="sourcePoint" />
            <mxPoint x="450" y="160" as="targetPoint" />
          </mxGeometry>
        </mxCell>
        <mxCell id="4dpfOXXUzg2HMI2NdFn6-35" value="$$E_i$$" style="text;html=1;align=center;verticalAlign=middle;whiteSpace=wrap;rounded=0;" parent="1" vertex="1">
          <mxGeometry x="436" y="160" width="30" height="20" as="geometry" />
        </mxCell>
        <mxCell id="4dpfOXXUzg2HMI2NdFn6-36" value="" style="endArrow=classic;startArrow=classic;html=1;rounded=0;endSize=4;startSize=4;" parent="1" edge="1">
          <mxGeometry width="50" height="50" relative="1" as="geometry">
            <mxPoint x="200" y="150" as="sourcePoint" />
            <mxPoint x="200" y="80" as="targetPoint" />
          </mxGeometry>
        </mxCell>
        <mxCell id="4dpfOXXUzg2HMI2NdFn6-38" value="$$\Phi_m$$" style="text;html=1;align=center;verticalAlign=middle;whiteSpace=wrap;rounded=0;" parent="1" vertex="1">
          <mxGeometry x="170" y="110" width="30" height="20" as="geometry" />
        </mxCell>
        <mxCell id="4dpfOXXUzg2HMI2NdFn6-39" value="" style="endArrow=classic;startArrow=classic;html=1;rounded=0;endSize=4;startSize=4;" parent="1" edge="1">
          <mxGeometry width="50" height="50" relative="1" as="geometry">
            <mxPoint x="420" y="150" as="sourcePoint" />
            <mxPoint x="420" y="80" as="targetPoint" />
          </mxGeometry>
        </mxCell>
        <mxCell id="4dpfOXXUzg2HMI2NdFn6-40" value="$$\Phi_s$$" style="text;html=1;align=center;verticalAlign=middle;whiteSpace=wrap;rounded=0;" parent="1" vertex="1">
          <mxGeometry x="399" y="100" width="21" height="20" as="geometry" />
        </mxCell>
        <mxCell id="4dpfOXXUzg2HMI2NdFn6-41" value="" style="endArrow=classic;startArrow=classic;html=1;rounded=0;endSize=2;startSize=2;" parent="1" edge="1">
          <mxGeometry width="50" height="50" relative="1" as="geometry">
            <mxPoint x="290" y="110" as="sourcePoint" />
            <mxPoint x="290" y="80" as="targetPoint" />
          </mxGeometry>
        </mxCell>
        <mxCell id="4dpfOXXUzg2HMI2NdFn6-42" value="" style="endArrow=classic;startArrow=classic;html=1;rounded=0;endSize=2;startSize=2;" parent="1" edge="1">
          <mxGeometry width="50" height="50" relative="1" as="geometry">
            <mxPoint x="375" y="130" as="sourcePoint" />
            <mxPoint x="374.83" y="80" as="targetPoint" />
          </mxGeometry>
        </mxCell>
        <mxCell id="4dpfOXXUzg2HMI2NdFn6-43" value="$$\chi_i$$" style="text;html=1;align=center;verticalAlign=middle;whiteSpace=wrap;rounded=0;" parent="1" vertex="1">
          <mxGeometry x="264" y="80" width="30" height="20" as="geometry" />
        </mxCell>
        <mxCell id="4dpfOXXUzg2HMI2NdFn6-44" value="$$\chi_s$$" style="text;html=1;align=center;verticalAlign=middle;whiteSpace=wrap;rounded=0;" parent="1" vertex="1">
          <mxGeometry x="350" y="90" width="30" height="20" as="geometry" />
        </mxCell>
        <mxCell id="ecY87HtbefaZI8lyU53w-14" value="" style="pointerEvents=1;verticalLabelPosition=bottom;shadow=0;dashed=0;align=center;html=1;verticalAlign=top;shape=mxgraph.electrical.capacitors.capacitor_1;strokeWidth=2;rotation=90;" vertex="1" parent="1">
          <mxGeometry y="460" width="90" height="30" as="geometry" />
        </mxCell>
        <mxCell id="ecY87HtbefaZI8lyU53w-15" value="" style="pointerEvents=1;verticalLabelPosition=bottom;shadow=0;dashed=0;align=center;html=1;verticalAlign=top;shape=mxgraph.electrical.capacitors.capacitor_1;strokeWidth=2;rotation=-180;" vertex="1" parent="1">
          <mxGeometry x="44" y="505" width="90" height="30" as="geometry" />
        </mxCell>
        <mxCell id="ecY87HtbefaZI8lyU53w-17" value="" style="pointerEvents=1;verticalLabelPosition=bottom;shadow=0;dashed=0;align=center;html=1;verticalAlign=top;shape=mxgraph.electrical.capacitors.capacitor_1;strokeWidth=2;rotation=90;" vertex="1" parent="1">
          <mxGeometry x="90" y="461" width="90" height="30" as="geometry" />
        </mxCell>
        <mxCell id="ecY87HtbefaZI8lyU53w-18" value="" style="pointerEvents=1;verticalLabelPosition=bottom;shadow=0;dashed=0;align=center;html=1;verticalAlign=top;shape=mxgraph.electrical.capacitors.capacitor_1;strokeWidth=2;rotation=90;" vertex="1" parent="1">
          <mxGeometry x="189" y="461" width="90" height="30" as="geometry" />
        </mxCell>
        <mxCell id="ecY87HtbefaZI8lyU53w-19" value="" style="pointerEvents=1;verticalLabelPosition=bottom;shadow=0;dashed=0;align=center;html=1;verticalAlign=top;shape=mxgraph.electrical.capacitors.capacitor_1;strokeWidth=2;rotation=90;" vertex="1" parent="1">
          <mxGeometry x="277" y="460" width="90" height="30" as="geometry" />
        </mxCell>
        <mxCell id="ecY87HtbefaZI8lyU53w-20" value="" style="pointerEvents=1;verticalLabelPosition=bottom;shadow=0;dashed=0;align=center;html=1;verticalAlign=top;shape=mxgraph.electrical.capacitors.capacitor_1;strokeWidth=2;rotation=-180;" vertex="1" parent="1">
          <mxGeometry x="233" y="505" width="90" height="30" as="geometry" />
        </mxCell>
        <mxCell id="ecY87HtbefaZI8lyU53w-21" value="" style="pointerEvents=1;verticalLabelPosition=bottom;shadow=0;dashed=0;align=center;html=1;verticalAlign=top;shape=mxgraph.electrical.capacitors.capacitor_1;strokeWidth=2;rotation=-180;" vertex="1" parent="1">
          <mxGeometry x="140" y="340" width="90" height="30" as="geometry" />
        </mxCell>
        <mxCell id="ecY87HtbefaZI8lyU53w-22" value="" style="pointerEvents=1;verticalLabelPosition=bottom;shadow=0;dashed=0;align=center;html=1;verticalAlign=top;shape=mxgraph.electrical.capacitors.capacitor_1;strokeWidth=2;rotation=-180;" vertex="1" parent="1">
          <mxGeometry x="140" y="405" width="90" height="30" as="geometry" />
        </mxCell>
        <mxCell id="ecY87HtbefaZI8lyU53w-23" style="edgeStyle=orthogonalEdgeStyle;rounded=0;orthogonalLoop=1;jettySize=auto;html=1;exitX=1;exitY=0.5;exitDx=0;exitDy=0;exitPerimeter=0;entryX=0;entryY=0.5;entryDx=0;entryDy=0;entryPerimeter=0;endArrow=none;endFill=0;strokeWidth=2;" edge="1" parent="1" source="ecY87HtbefaZI8lyU53w-21" target="ecY87HtbefaZI8lyU53w-14">
          <mxGeometry relative="1" as="geometry" />
        </mxCell>
        <mxCell id="ecY87HtbefaZI8lyU53w-27" style="edgeStyle=orthogonalEdgeStyle;rounded=0;orthogonalLoop=1;jettySize=auto;html=1;exitX=0;exitY=0.5;exitDx=0;exitDy=0;exitPerimeter=0;entryX=0;entryY=0.5;entryDx=0;entryDy=0;entryPerimeter=0;endArrow=none;endFill=0;strokeWidth=2;" edge="1" parent="1" source="ecY87HtbefaZI8lyU53w-21" target="ecY87HtbefaZI8lyU53w-19">
          <mxGeometry relative="1" as="geometry" />
        </mxCell>
        <mxCell id="ecY87HtbefaZI8lyU53w-28" style="edgeStyle=orthogonalEdgeStyle;rounded=0;orthogonalLoop=1;jettySize=auto;html=1;exitX=0;exitY=0.5;exitDx=0;exitDy=0;exitPerimeter=0;entryX=0;entryY=0.5;entryDx=0;entryDy=0;entryPerimeter=0;endArrow=none;endFill=0;strokeWidth=2;" edge="1" parent="1" source="ecY87HtbefaZI8lyU53w-14" target="ecY87HtbefaZI8lyU53w-17">
          <mxGeometry relative="1" as="geometry">
            <Array as="points">
              <mxPoint x="45" y="420" />
              <mxPoint x="135" y="420" />
            </Array>
          </mxGeometry>
        </mxCell>
        <mxCell id="ecY87HtbefaZI8lyU53w-29" style="edgeStyle=orthogonalEdgeStyle;rounded=0;orthogonalLoop=1;jettySize=auto;html=1;exitX=0;exitY=0.5;exitDx=0;exitDy=0;exitPerimeter=0;entryX=0;entryY=0.5;entryDx=0;entryDy=0;entryPerimeter=0;endArrow=none;endFill=0;strokeWidth=2;" edge="1" parent="1" source="ecY87HtbefaZI8lyU53w-18" target="ecY87HtbefaZI8lyU53w-19">
          <mxGeometry relative="1" as="geometry">
            <Array as="points">
              <mxPoint x="234" y="420" />
              <mxPoint x="322" y="420" />
            </Array>
          </mxGeometry>
        </mxCell>
        <mxCell id="ecY87HtbefaZI8lyU53w-31" style="edgeStyle=orthogonalEdgeStyle;rounded=0;orthogonalLoop=1;jettySize=auto;html=1;exitX=0;exitY=0.5;exitDx=0;exitDy=0;exitPerimeter=0;entryX=0;entryY=0.5;entryDx=0;entryDy=0;entryPerimeter=0;strokeWidth=2;endArrow=none;endFill=0;" edge="1" parent="1" source="ecY87HtbefaZI8lyU53w-22" target="ecY87HtbefaZI8lyU53w-18">
          <mxGeometry relative="1" as="geometry" />
        </mxCell>
        <mxCell id="ecY87HtbefaZI8lyU53w-32" style="edgeStyle=orthogonalEdgeStyle;rounded=0;orthogonalLoop=1;jettySize=auto;html=1;exitX=1;exitY=0.5;exitDx=0;exitDy=0;exitPerimeter=0;entryX=0;entryY=0.5;entryDx=0;entryDy=0;entryPerimeter=0;strokeWidth=2;endArrow=none;endFill=0;" edge="1" parent="1" source="ecY87HtbefaZI8lyU53w-22" target="ecY87HtbefaZI8lyU53w-17">
          <mxGeometry relative="1" as="geometry" />
        </mxCell>
        <mxCell id="ecY87HtbefaZI8lyU53w-33" value="" style="ellipse;whiteSpace=wrap;html=1;aspect=fixed;strokeWidth=2;" vertex="1" parent="1">
          <mxGeometry x="154" y="515" width="10" height="10" as="geometry" />
        </mxCell>
        <mxCell id="ecY87HtbefaZI8lyU53w-34" value="" style="ellipse;whiteSpace=wrap;html=1;aspect=fixed;strokeWidth=2;" vertex="1" parent="1">
          <mxGeometry x="205" y="515" width="10" height="10" as="geometry" />
        </mxCell>
        <mxCell id="ecY87HtbefaZI8lyU53w-37" style="edgeStyle=orthogonalEdgeStyle;rounded=0;orthogonalLoop=1;jettySize=auto;html=1;exitX=0;exitY=0.5;exitDx=0;exitDy=0;entryX=1;entryY=0.5;entryDx=0;entryDy=0;entryPerimeter=0;strokeWidth=2;endArrow=none;endFill=0;" edge="1" parent="1" source="ecY87HtbefaZI8lyU53w-33" target="ecY87HtbefaZI8lyU53w-17">
          <mxGeometry relative="1" as="geometry" />
        </mxCell>
        <mxCell id="ecY87HtbefaZI8lyU53w-38" style="edgeStyle=orthogonalEdgeStyle;rounded=0;orthogonalLoop=1;jettySize=auto;html=1;exitX=1;exitY=0.5;exitDx=0;exitDy=0;entryX=1;entryY=0.5;entryDx=0;entryDy=0;entryPerimeter=0;strokeWidth=2;endArrow=none;endFill=0;" edge="1" parent="1" source="ecY87HtbefaZI8lyU53w-34" target="ecY87HtbefaZI8lyU53w-18">
          <mxGeometry relative="1" as="geometry" />
        </mxCell>
        <mxCell id="ecY87HtbefaZI8lyU53w-41" value="$$4\mu F$$" style="text;html=1;align=center;verticalAlign=middle;whiteSpace=wrap;rounded=0;fontSize=12;" vertex="1" parent="1">
          <mxGeometry x="95" y="520" width="40" height="20" as="geometry" />
        </mxCell>
        <mxCell id="ecY87HtbefaZI8lyU53w-42" value="$$4\mu F$$" style="text;html=1;align=center;verticalAlign=middle;whiteSpace=wrap;rounded=0;fontSize=12;" vertex="1" parent="1">
          <mxGeometry x="45" y="450" width="40" height="20" as="geometry" />
        </mxCell>
        <mxCell id="ecY87HtbefaZI8lyU53w-43" value="$$4\mu F$$" style="text;html=1;align=center;verticalAlign=middle;whiteSpace=wrap;rounded=0;fontSize=12;" vertex="1" parent="1">
          <mxGeometry x="135" y="450" width="40" height="20" as="geometry" />
        </mxCell>
        <mxCell id="ecY87HtbefaZI8lyU53w-44" value="$$4\mu F$$" style="text;html=1;align=center;verticalAlign=middle;whiteSpace=wrap;rounded=0;fontSize=12;" vertex="1" parent="1">
          <mxGeometry x="195" y="390" width="40" height="20" as="geometry" />
        </mxCell>
        <mxCell id="ecY87HtbefaZI8lyU53w-45" value="$$4\mu F$$" style="text;html=1;align=center;verticalAlign=middle;whiteSpace=wrap;rounded=0;fontSize=12;" vertex="1" parent="1">
          <mxGeometry x="285" y="520" width="40" height="20" as="geometry" />
        </mxCell>
        <mxCell id="ecY87HtbefaZI8lyU53w-46" value="$$4\mu F$$" style="text;html=1;align=center;verticalAlign=middle;whiteSpace=wrap;rounded=0;fontSize=12;" vertex="1" parent="1">
          <mxGeometry x="235" y="450" width="40" height="20" as="geometry" />
        </mxCell>
        <mxCell id="ecY87HtbefaZI8lyU53w-47" value="$$4\mu F$$" style="text;html=1;align=center;verticalAlign=middle;whiteSpace=wrap;rounded=0;fontSize=12;" vertex="1" parent="1">
          <mxGeometry x="325" y="450" width="40" height="20" as="geometry" />
        </mxCell>
        <mxCell id="ecY87HtbefaZI8lyU53w-48" value="$$4\mu F$$" style="text;html=1;align=center;verticalAlign=middle;whiteSpace=wrap;rounded=0;fontSize=12;" vertex="1" parent="1">
          <mxGeometry x="135" y="360" width="40" height="20" as="geometry" />
        </mxCell>
        <mxCell id="ecY87HtbefaZI8lyU53w-49" value="" style="pointerEvents=1;verticalLabelPosition=bottom;shadow=0;dashed=0;align=center;html=1;verticalAlign=top;shape=mxgraph.electrical.capacitors.capacitor_1;strokeWidth=2;rotation=90;" vertex="1" parent="1">
          <mxGeometry x="530" y="430" width="90" height="30" as="geometry" />
        </mxCell>
        <mxCell id="ecY87HtbefaZI8lyU53w-51" value="" style="pointerEvents=1;verticalLabelPosition=bottom;shadow=0;dashed=0;align=center;html=1;verticalAlign=top;shape=mxgraph.electrical.capacitors.capacitor_1;strokeWidth=2;rotation=90;" vertex="1" parent="1">
          <mxGeometry x="620" y="431" width="90" height="30" as="geometry" />
        </mxCell>
        <mxCell id="ecY87HtbefaZI8lyU53w-52" value="" style="pointerEvents=1;verticalLabelPosition=bottom;shadow=0;dashed=0;align=center;html=1;verticalAlign=top;shape=mxgraph.electrical.capacitors.capacitor_1;strokeWidth=2;rotation=90;" vertex="1" parent="1">
          <mxGeometry x="719" y="431" width="90" height="30" as="geometry" />
        </mxCell>
        <mxCell id="ecY87HtbefaZI8lyU53w-53" value="" style="pointerEvents=1;verticalLabelPosition=bottom;shadow=0;dashed=0;align=center;html=1;verticalAlign=top;shape=mxgraph.electrical.capacitors.capacitor_1;strokeWidth=2;rotation=90;" vertex="1" parent="1">
          <mxGeometry x="807" y="430" width="90" height="30" as="geometry" />
        </mxCell>
        <mxCell id="ecY87HtbefaZI8lyU53w-56" value="" style="pointerEvents=1;verticalLabelPosition=bottom;shadow=0;dashed=0;align=center;html=1;verticalAlign=top;shape=mxgraph.electrical.capacitors.capacitor_1;strokeWidth=2;rotation=-180;" vertex="1" parent="1">
          <mxGeometry x="670" y="375" width="90" height="30" as="geometry" />
        </mxCell>
        <mxCell id="ecY87HtbefaZI8lyU53w-59" style="edgeStyle=orthogonalEdgeStyle;rounded=0;orthogonalLoop=1;jettySize=auto;html=1;exitX=0;exitY=0.5;exitDx=0;exitDy=0;exitPerimeter=0;entryX=0;entryY=0.5;entryDx=0;entryDy=0;entryPerimeter=0;endArrow=none;endFill=0;strokeWidth=2;" edge="1" parent="1" source="ecY87HtbefaZI8lyU53w-49" target="ecY87HtbefaZI8lyU53w-51">
          <mxGeometry relative="1" as="geometry">
            <Array as="points">
              <mxPoint x="575" y="390" />
              <mxPoint x="665" y="390" />
            </Array>
          </mxGeometry>
        </mxCell>
        <mxCell id="ecY87HtbefaZI8lyU53w-60" style="edgeStyle=orthogonalEdgeStyle;rounded=0;orthogonalLoop=1;jettySize=auto;html=1;exitX=0;exitY=0.5;exitDx=0;exitDy=0;exitPerimeter=0;entryX=0;entryY=0.5;entryDx=0;entryDy=0;entryPerimeter=0;endArrow=none;endFill=0;strokeWidth=2;" edge="1" parent="1" source="ecY87HtbefaZI8lyU53w-52" target="ecY87HtbefaZI8lyU53w-53">
          <mxGeometry relative="1" as="geometry">
            <Array as="points">
              <mxPoint x="764" y="390" />
              <mxPoint x="852" y="390" />
            </Array>
          </mxGeometry>
        </mxCell>
        <mxCell id="ecY87HtbefaZI8lyU53w-61" style="edgeStyle=orthogonalEdgeStyle;rounded=0;orthogonalLoop=1;jettySize=auto;html=1;exitX=0;exitY=0.5;exitDx=0;exitDy=0;exitPerimeter=0;entryX=0;entryY=0.5;entryDx=0;entryDy=0;entryPerimeter=0;strokeWidth=2;endArrow=none;endFill=0;" edge="1" parent="1" source="ecY87HtbefaZI8lyU53w-56" target="ecY87HtbefaZI8lyU53w-52">
          <mxGeometry relative="1" as="geometry" />
        </mxCell>
        <mxCell id="ecY87HtbefaZI8lyU53w-62" style="edgeStyle=orthogonalEdgeStyle;rounded=0;orthogonalLoop=1;jettySize=auto;html=1;exitX=1;exitY=0.5;exitDx=0;exitDy=0;exitPerimeter=0;entryX=0;entryY=0.5;entryDx=0;entryDy=0;entryPerimeter=0;strokeWidth=2;endArrow=none;endFill=0;" edge="1" parent="1" source="ecY87HtbefaZI8lyU53w-56" target="ecY87HtbefaZI8lyU53w-51">
          <mxGeometry relative="1" as="geometry" />
        </mxCell>
        <mxCell id="ecY87HtbefaZI8lyU53w-63" value="" style="ellipse;whiteSpace=wrap;html=1;aspect=fixed;strokeWidth=2;" vertex="1" parent="1">
          <mxGeometry x="684" y="485" width="10" height="10" as="geometry" />
        </mxCell>
        <mxCell id="ecY87HtbefaZI8lyU53w-64" value="" style="ellipse;whiteSpace=wrap;html=1;aspect=fixed;strokeWidth=2;" vertex="1" parent="1">
          <mxGeometry x="735" y="485" width="10" height="10" as="geometry" />
        </mxCell>
        <mxCell id="ecY87HtbefaZI8lyU53w-65" style="edgeStyle=orthogonalEdgeStyle;rounded=0;orthogonalLoop=1;jettySize=auto;html=1;exitX=0;exitY=0.5;exitDx=0;exitDy=0;entryX=1;entryY=0.5;entryDx=0;entryDy=0;entryPerimeter=0;strokeWidth=2;endArrow=none;endFill=0;" edge="1" parent="1" source="ecY87HtbefaZI8lyU53w-63" target="ecY87HtbefaZI8lyU53w-51">
          <mxGeometry relative="1" as="geometry" />
        </mxCell>
        <mxCell id="ecY87HtbefaZI8lyU53w-66" style="edgeStyle=orthogonalEdgeStyle;rounded=0;orthogonalLoop=1;jettySize=auto;html=1;exitX=1;exitY=0.5;exitDx=0;exitDy=0;entryX=1;entryY=0.5;entryDx=0;entryDy=0;entryPerimeter=0;strokeWidth=2;endArrow=none;endFill=0;" edge="1" parent="1" source="ecY87HtbefaZI8lyU53w-64" target="ecY87HtbefaZI8lyU53w-52">
          <mxGeometry relative="1" as="geometry" />
        </mxCell>
        <mxCell id="ecY87HtbefaZI8lyU53w-67" value="$$2\mu F$$" style="text;html=1;align=center;verticalAlign=middle;whiteSpace=wrap;rounded=0;fontSize=12;" vertex="1" parent="1">
          <mxGeometry x="580" y="420" width="40" height="20" as="geometry" />
        </mxCell>
        <mxCell id="ecY87HtbefaZI8lyU53w-69" value="$$4\mu F$$" style="text;html=1;align=center;verticalAlign=middle;whiteSpace=wrap;rounded=0;fontSize=12;" vertex="1" parent="1">
          <mxGeometry x="665" y="420" width="40" height="20" as="geometry" />
        </mxCell>
        <mxCell id="ecY87HtbefaZI8lyU53w-70" value="$$8\mu F$$" style="text;html=1;align=center;verticalAlign=middle;whiteSpace=wrap;rounded=0;fontSize=12;" vertex="1" parent="1">
          <mxGeometry x="725" y="360" width="40" height="20" as="geometry" />
        </mxCell>
        <mxCell id="ecY87HtbefaZI8lyU53w-72" value="$$4\mu F$$" style="text;html=1;align=center;verticalAlign=middle;whiteSpace=wrap;rounded=0;fontSize=12;" vertex="1" parent="1">
          <mxGeometry x="765" y="420" width="40" height="20" as="geometry" />
        </mxCell>
        <mxCell id="ecY87HtbefaZI8lyU53w-75" value="$$2\mu F$$" style="text;html=1;align=center;verticalAlign=middle;whiteSpace=wrap;rounded=0;fontSize=12;" vertex="1" parent="1">
          <mxGeometry x="860" y="420" width="40" height="20" as="geometry" />
        </mxCell>
        <mxCell id="ecY87HtbefaZI8lyU53w-76" style="edgeStyle=orthogonalEdgeStyle;rounded=0;orthogonalLoop=1;jettySize=auto;html=1;exitX=1;exitY=0.5;exitDx=0;exitDy=0;exitPerimeter=0;entryX=1;entryY=0.5;entryDx=0;entryDy=0;entryPerimeter=0;strokeWidth=2;endArrow=none;endFill=0;" edge="1" parent="1" source="ecY87HtbefaZI8lyU53w-49" target="ecY87HtbefaZI8lyU53w-51">
          <mxGeometry relative="1" as="geometry">
            <Array as="points">
              <mxPoint x="665" y="490" />
            </Array>
          </mxGeometry>
        </mxCell>
        <mxCell id="ecY87HtbefaZI8lyU53w-77" style="edgeStyle=orthogonalEdgeStyle;rounded=0;orthogonalLoop=1;jettySize=auto;html=1;exitX=1;exitY=0.5;exitDx=0;exitDy=0;exitPerimeter=0;entryX=1;entryY=0.5;entryDx=0;entryDy=0;entryPerimeter=0;strokeWidth=2;endArrow=none;endFill=0;" edge="1" parent="1" source="ecY87HtbefaZI8lyU53w-53" target="ecY87HtbefaZI8lyU53w-52">
          <mxGeometry relative="1" as="geometry">
            <Array as="points">
              <mxPoint x="764" y="490" />
            </Array>
          </mxGeometry>
        </mxCell>
        <mxCell id="ecY87HtbefaZI8lyU53w-99" value="" style="pointerEvents=1;verticalLabelPosition=bottom;shadow=0;dashed=0;align=center;html=1;verticalAlign=top;shape=mxgraph.electrical.capacitors.capacitor_1;strokeWidth=2;rotation=90;" vertex="1" parent="1">
          <mxGeometry x="620" y="707" width="90" height="30" as="geometry" />
        </mxCell>
        <mxCell id="ecY87HtbefaZI8lyU53w-100" value="" style="pointerEvents=1;verticalLabelPosition=bottom;shadow=0;dashed=0;align=center;html=1;verticalAlign=top;shape=mxgraph.electrical.capacitors.capacitor_1;strokeWidth=2;rotation=90;" vertex="1" parent="1">
          <mxGeometry x="719" y="707" width="90" height="30" as="geometry" />
        </mxCell>
        <mxCell id="ecY87HtbefaZI8lyU53w-102" value="" style="pointerEvents=1;verticalLabelPosition=bottom;shadow=0;dashed=0;align=center;html=1;verticalAlign=top;shape=mxgraph.electrical.capacitors.capacitor_1;strokeWidth=2;rotation=-180;" vertex="1" parent="1">
          <mxGeometry x="670" y="651" width="90" height="30" as="geometry" />
        </mxCell>
        <mxCell id="ecY87HtbefaZI8lyU53w-105" style="edgeStyle=orthogonalEdgeStyle;rounded=0;orthogonalLoop=1;jettySize=auto;html=1;exitX=0;exitY=0.5;exitDx=0;exitDy=0;exitPerimeter=0;entryX=0;entryY=0.5;entryDx=0;entryDy=0;entryPerimeter=0;strokeWidth=2;endArrow=none;endFill=0;" edge="1" parent="1" source="ecY87HtbefaZI8lyU53w-102" target="ecY87HtbefaZI8lyU53w-100">
          <mxGeometry relative="1" as="geometry" />
        </mxCell>
        <mxCell id="ecY87HtbefaZI8lyU53w-106" style="edgeStyle=orthogonalEdgeStyle;rounded=0;orthogonalLoop=1;jettySize=auto;html=1;exitX=1;exitY=0.5;exitDx=0;exitDy=0;exitPerimeter=0;entryX=0;entryY=0.5;entryDx=0;entryDy=0;entryPerimeter=0;strokeWidth=2;endArrow=none;endFill=0;" edge="1" parent="1" source="ecY87HtbefaZI8lyU53w-102" target="ecY87HtbefaZI8lyU53w-99">
          <mxGeometry relative="1" as="geometry" />
        </mxCell>
        <mxCell id="ecY87HtbefaZI8lyU53w-107" value="" style="ellipse;whiteSpace=wrap;html=1;aspect=fixed;strokeWidth=2;" vertex="1" parent="1">
          <mxGeometry x="684" y="761" width="10" height="10" as="geometry" />
        </mxCell>
        <mxCell id="ecY87HtbefaZI8lyU53w-108" value="" style="ellipse;whiteSpace=wrap;html=1;aspect=fixed;strokeWidth=2;" vertex="1" parent="1">
          <mxGeometry x="735" y="761" width="10" height="10" as="geometry" />
        </mxCell>
        <mxCell id="ecY87HtbefaZI8lyU53w-109" style="edgeStyle=orthogonalEdgeStyle;rounded=0;orthogonalLoop=1;jettySize=auto;html=1;exitX=0;exitY=0.5;exitDx=0;exitDy=0;entryX=1;entryY=0.5;entryDx=0;entryDy=0;entryPerimeter=0;strokeWidth=2;endArrow=none;endFill=0;" edge="1" parent="1" source="ecY87HtbefaZI8lyU53w-107" target="ecY87HtbefaZI8lyU53w-99">
          <mxGeometry relative="1" as="geometry" />
        </mxCell>
        <mxCell id="ecY87HtbefaZI8lyU53w-110" style="edgeStyle=orthogonalEdgeStyle;rounded=0;orthogonalLoop=1;jettySize=auto;html=1;exitX=1;exitY=0.5;exitDx=0;exitDy=0;entryX=1;entryY=0.5;entryDx=0;entryDy=0;entryPerimeter=0;strokeWidth=2;endArrow=none;endFill=0;" edge="1" parent="1" source="ecY87HtbefaZI8lyU53w-108" target="ecY87HtbefaZI8lyU53w-100">
          <mxGeometry relative="1" as="geometry" />
        </mxCell>
        <mxCell id="ecY87HtbefaZI8lyU53w-112" value="$$6\mu F$$" style="text;html=1;align=center;verticalAlign=middle;whiteSpace=wrap;rounded=0;fontSize=12;" vertex="1" parent="1">
          <mxGeometry x="665" y="696" width="40" height="20" as="geometry" />
        </mxCell>
        <mxCell id="ecY87HtbefaZI8lyU53w-113" value="$$8\mu F$$" style="text;html=1;align=center;verticalAlign=middle;whiteSpace=wrap;rounded=0;fontSize=12;" vertex="1" parent="1">
          <mxGeometry x="721" y="640" width="40" height="20" as="geometry" />
        </mxCell>
        <mxCell id="ecY87HtbefaZI8lyU53w-138" value="$$6\mu F$$" style="text;html=1;align=center;verticalAlign=middle;whiteSpace=wrap;rounded=0;fontSize=12;" vertex="1" parent="1">
          <mxGeometry x="765" y="696" width="40" height="20" as="geometry" />
        </mxCell>
        <mxCell id="ecY87HtbefaZI8lyU53w-139" value="" style="shape=flexArrow;endArrow=classic;html=1;rounded=0;strokeWidth=3;fillColor=#f8cecc;strokeColor=#b85450;" edge="1" parent="1">
          <mxGeometry width="50" height="50" relative="1" as="geometry">
            <mxPoint x="410" y="450" as="sourcePoint" />
            <mxPoint x="490" y="450" as="targetPoint" />
          </mxGeometry>
        </mxCell>
        <mxCell id="ecY87HtbefaZI8lyU53w-141" value="" style="shape=flexArrow;endArrow=classic;html=1;rounded=0;strokeWidth=3;fillColor=#f8cecc;strokeColor=#b85450;" edge="1" parent="1">
          <mxGeometry width="50" height="50" relative="1" as="geometry">
            <mxPoint x="716" y="540" as="sourcePoint" />
            <mxPoint x="716" y="610" as="targetPoint" />
          </mxGeometry>
        </mxCell>
        <mxCell id="ecY87HtbefaZI8lyU53w-142" value="" style="shape=flexArrow;endArrow=classic;html=1;rounded=0;strokeWidth=3;fillColor=#f8cecc;strokeColor=#b85450;" edge="1" parent="1">
          <mxGeometry width="50" height="50" relative="1" as="geometry">
            <mxPoint x="570" y="720" as="sourcePoint" />
            <mxPoint x="480" y="720" as="targetPoint" />
          </mxGeometry>
        </mxCell>
        <mxCell id="ecY87HtbefaZI8lyU53w-155" style="edgeStyle=orthogonalEdgeStyle;rounded=0;orthogonalLoop=1;jettySize=auto;html=1;exitX=1;exitY=0.5;exitDx=0;exitDy=0;exitPerimeter=0;entryX=0;entryY=0.5;entryDx=0;entryDy=0;strokeWidth=2;endArrow=none;endFill=0;" edge="1" parent="1" source="ecY87HtbefaZI8lyU53w-145" target="ecY87HtbefaZI8lyU53w-148">
          <mxGeometry relative="1" as="geometry">
            <Array as="points">
              <mxPoint x="270" y="666" />
              <mxPoint x="270" y="766" />
            </Array>
          </mxGeometry>
        </mxCell>
        <mxCell id="ecY87HtbefaZI8lyU53w-157" style="edgeStyle=orthogonalEdgeStyle;rounded=0;orthogonalLoop=1;jettySize=auto;html=1;exitX=0;exitY=0.5;exitDx=0;exitDy=0;exitPerimeter=0;entryX=1;entryY=0.5;entryDx=0;entryDy=0;strokeWidth=2;endArrow=none;endFill=0;" edge="1" parent="1" source="ecY87HtbefaZI8lyU53w-145" target="ecY87HtbefaZI8lyU53w-149">
          <mxGeometry relative="1" as="geometry">
            <Array as="points">
              <mxPoint x="380" y="666" />
              <mxPoint x="380" y="766" />
            </Array>
          </mxGeometry>
        </mxCell>
        <mxCell id="ecY87HtbefaZI8lyU53w-145" value="" style="pointerEvents=1;verticalLabelPosition=bottom;shadow=0;dashed=0;align=center;html=1;verticalAlign=top;shape=mxgraph.electrical.capacitors.capacitor_1;strokeWidth=2;rotation=-180;" vertex="1" parent="1">
          <mxGeometry x="280" y="651" width="90" height="30" as="geometry" />
        </mxCell>
        <mxCell id="ecY87HtbefaZI8lyU53w-148" value="" style="ellipse;whiteSpace=wrap;html=1;aspect=fixed;strokeWidth=2;" vertex="1" parent="1">
          <mxGeometry x="294" y="761" width="10" height="10" as="geometry" />
        </mxCell>
        <mxCell id="ecY87HtbefaZI8lyU53w-149" value="" style="ellipse;whiteSpace=wrap;html=1;aspect=fixed;strokeWidth=2;" vertex="1" parent="1">
          <mxGeometry x="345" y="761" width="10" height="10" as="geometry" />
        </mxCell>
        <mxCell id="ecY87HtbefaZI8lyU53w-153" value="$$\frac{24}{11}\mu F$$" style="text;html=1;align=center;verticalAlign=middle;whiteSpace=wrap;rounded=0;fontSize=12;" vertex="1" parent="1">
          <mxGeometry x="337" y="632" width="40" height="20" as="geometry" />
        </mxCell>
      </root>
    </mxGraphModel>
  </diagram>
</mxfile>
